<?xml version="1.0" encoding="utf-8"?>
<!-- Generator: Adobe Illustrator 23.0.3, SVG Export Plug-In . SVG Version: 6.00 Build 0)  -->
<svg fill="#d5d5ff" version="1.1" id="Layer_1" xmlns="http://www.w3.org/2000/svg" xmlns:xlink="http://www.w3.org/1999/xlink" x="0px" y="0px" viewBox="0 0 56 56" style="enable-background:new 0 0 56 56;" xml:space="preserve">
<style type="text/css">
	.st0{fill:none;stroke:#191919;stroke-width:2;stroke-linecap:round;stroke-linejoin:round;}
	.st1{fill:#FFFFFF;stroke:#191919;stroke-width:2;}
</style>
<path d="M28,0L28,0c15.5,0,28,12.5,28,28l0,0c0,15.5-12.5,28-28,28l0,0C12.5,56,0,43.5,0,28l0,0C0,12.5,12.5,0,28,0z"/>
<path class="st0" d="M29.5,31.4v11.9l3.5-6l3.5,6V31.4"/>
<path class="st0" d="M41.4,43.3V31.4"/>
<path class="st0" d="M41.4,31.4h1.1c1.9,0,3.5,1.6,3.5,3.5c0,1.9-1.6,3.7-3.5,3.7h-1.1"/>
<path class="st0" d="M44,25.5V21 M12,21v20.7c0,1.2,1.1,2.3,2.3,2.3h9.4"/>
<path class="st1" d="M12,15c0-1.1,0.9-2,2-2h28c1.1,0,2,0.9,2,2v5H12V15z"/>
</svg>
